<?xml version="1.0" encoding="UTF-8" standalone="no"?>
<svg width="424px" height="433px" viewBox="0 0 424 433" version="1.1" xmlns="http://www.w3.org/2000/svg" xmlns:xlink="http://www.w3.org/1999/xlink">
    <!-- Generator: Sketch 50.2 (55047) - http://www.bohemiancoding.com/sketch -->
    <title>a</title>
    <desc>Created with Sketch.</desc>
    <defs></defs>
    <g id="Page-1" stroke="none" stroke-width="1" fill="none" fill-rule="evenodd">
        <g id="a" fill-rule="nonzero">
            <path d="M240.94,127.58 C239.644387,127.580979 238.458782,126.851839 237.875141,125.69513 C237.2915,124.538421 237.409431,123.151555 238.18,122.11 L257.11,96.43 C257.654185,95.6919311 258.471249,95.2024962 259.378764,95.0709722 C260.28628,94.9394482 261.208673,95.1767879 261.94,95.73 L284.86,113.06 L302.11,90.06 C303.247707,88.5439785 305.398978,88.2372937 306.915,89.3750002 C308.431021,90.5127067 308.737706,92.6639784 307.6,94.18 L288.28,119.91 C287.732973,120.642054 286.916431,121.125546 286.011531,121.253208 C285.106632,121.38087 284.1882,121.142147 283.46,120.59 L260.57,103.28 L243.7,126.16 C243.059041,127.046331 242.033788,127.573816 240.94,127.58 Z" id="Shape" fill="#EF4939"></path>
            <path d="M319.12,363.39 C317.956184,363.384 316.874318,362.78995 316.244661,361.811156 C315.615004,360.832363 315.522949,359.601568 316,358.54 L327.76,332.66 L301.49,321.11 C300.652188,320.744108 299.995113,320.058888 299.664662,319.206475 C299.334211,318.354061 299.357731,317.404998 299.73,316.57 L311.37,290.34 L285.25,279.12 C283.507542,278.371654 282.701654,276.352458 283.45,274.61 C284.198346,272.867542 286.217542,272.061654 287.96,272.81 L317.27,285.4 C318.113933,285.762038 318.777449,286.447367 319.11201,287.302565 C319.446571,288.157763 319.424234,289.111404 319.05,289.95 L307.4,316.21 L333.7,327.78 C334.541116,328.147603 335.199791,328.83701 335.528681,329.694004 C335.857572,330.550998 335.829231,331.504062 335.45,332.34 L322.26,361.34 C321.712578,362.585641 320.480623,363.389943 319.12,363.39 Z" id="Shape" fill="#EF4939"></path>
            <path d="M269.79,432.54 C268.546833,432.540093 267.400926,431.86752 266.794902,430.782072 C266.188877,429.696624 266.217609,428.36823 266.87,427.31 L281.87,402.84 L257.46,388.28 C255.83076,387.307979 255.297979,385.19924 256.27,383.57 C257.242021,381.94076 259.35076,381.407979 260.98,382.38 L288.38,398.72 C289.168364,399.189234 289.735888,399.95474 289.955747,400.845449 C290.175605,401.736157 290.02947,402.677819 289.55,403.46 L272.72,430.9 C272.095971,431.920023 270.985766,432.541434 269.79,432.54 Z" id="Shape" fill="#63C4B0"></path>
            <path d="M164.06,57.83 C162.509366,57.8288599 161.152351,56.7875248 160.75,55.29 L152.34,24.23 C151.842944,22.3991761 152.924176,20.5120563 154.755,20.015 C156.585824,19.5179437 158.472944,20.5991761 158.97,22.43 L166.47,50.13 L193.82,42.37 C195.004335,42.0359567 196.276916,42.3591233 197.158374,43.2177662 C198.039832,44.0764092 198.396252,45.34008 198.093374,46.5327662 C197.790497,47.7254525 196.874335,48.6659567 195.69,49 L165,57.7 C164.694177,57.7865503 164.377834,57.8302998 164.06,57.83 Z" id="Shape" fill="#63C4B0"></path>
            <path d="M286.6,33.64 C277.466514,33.6344779 270.066321,26.2268243 270.070001,17.0933374 C270.073682,7.95985046 277.479844,0.558163784 286.613331,0.560003358 C295.746819,0.561842932 303.149998,7.96651235 303.15,17.1 C303.13897,26.2341212 295.734126,33.6344909 286.6,33.64 Z M286.6,7.42 C281.253884,7.42 276.92,11.7538836 276.92,17.1 C276.92,22.4461164 281.253884,26.78 286.6,26.78 C291.946116,26.78 296.28,22.4461164 296.28,17.1 C296.274488,11.7561684 291.943832,7.42551195 286.6,7.42 Z" id="Shape" fill="#B3D1DC"></path>
            <path d="M77.37,110.74 C75.6765886,110.739825 74.2367271,109.503838 73.98,107.83 L69.66,79.73 L41.35,84.43 C40.4415796,84.5947219 39.505112,84.3862794 38.7523227,83.851799 C37.9995335,83.3173186 37.4939935,82.5019358 37.35,81.59 L32.75,53.26 L4.75,58.16 C3.54065595,58.3707868 2.31072258,57.9203844 1.5235039,56.978455 C0.736285224,56.0365257 0.511378488,54.746171 0.93350389,53.593455 C1.35562929,52.440739 2.36065594,51.6007867 3.57,51.39 L35,45.9 C35.9069339,45.7351177 36.8420623,45.9422206 37.5945693,46.4746193 C38.3470764,47.0070181 38.8536183,47.8198969 39,48.73 L43.61,77.09 L71.95,72.39 C72.8629035,72.2257165 73.8034232,72.4381707 74.5570686,72.9789113 C75.3107141,73.5196519 75.8132246,74.3425719 75.95,75.26 L80.79,106.79 C80.9546229,107.787756 80.6718915,108.807407 80.0169595,109.577916 C79.3620276,110.348424 78.4012446,110.791731 77.39,110.79 L77.37,110.74 Z" id="Shape" fill="#EF4939"></path>
            <path d="M375.31,52.72 C374.023141,52.7212922 372.843825,52.0021721 372.255711,50.8575627 C371.667597,49.7129534 371.769644,48.3354541 372.52,47.29 L391.09,21.35 C391.623428,20.603921 392.433435,20.1025512 393.33911,19.9578688 C394.244784,19.8131863 395.170679,20.0372441 395.91,20.58 L421.84,39.58 C423.369829,40.7011381 423.701138,42.8501712 422.58,44.3799998 C421.458862,45.9098285 419.309829,46.2411379 417.78,45.12 L394.65,28.12 L378.11,51.28 C377.465123,52.1853299 376.421524,52.7220379 375.31,52.72 Z" id="Shape" fill="#63C4B0"></path>
            <path d="M363,168.46 C353.86521,168.46 346.46,161.05479 346.46,151.92 C346.46,142.78521 353.86521,135.38 363,135.38 C372.13479,135.38 379.54,142.78521 379.54,151.92 C379.52898,161.050221 372.130221,168.44898 363,168.46 Z M363,142.24 C357.653884,142.24 353.32,146.573884 353.32,151.92 C353.32,157.266116 357.653884,161.6 363,161.6 C368.346116,161.6 372.68,157.266116 372.68,151.92 C372.674488,146.576168 368.343832,142.245512 363,142.24 Z" id="Shape" fill="#B3D1DC"></path>
            <path d="M151.64,318.94 C150.947502,318.941023 150.271007,318.731798 149.7,318.34 L123.15,300.16 C122.396356,299.645553 121.878763,298.85201 121.711735,297.954939 C121.544707,297.057867 121.742013,296.131216 122.26,295.38 L138.55,271.75 L115,255.9 C113.425988,254.842375 113.007375,252.709012 114.065,251.135 C115.122625,249.560988 117.255988,249.142375 118.83,250.2 L145.27,268 C146.032569,268.511521 146.558198,269.307443 146.729235,270.209614 C146.900271,271.111784 146.702432,272.044864 146.18,272.8 L129.87,296.45 L153.58,312.68 C154.830257,313.526683 155.379764,315.091394 154.93344,316.533895 C154.487116,317.976396 153.149954,318.957353 151.64,318.95 L151.64,318.94 Z" id="Shape" fill="#EF4939"></path>
            <path d="M58.65,303.5 C58.3840781,303.500546 58.1189847,303.470346 57.86,303.41 L26.8,296.14 C25.9116995,295.931118 25.1432512,295.376875 24.6646829,294.599905 C24.1861145,293.822936 24.0368803,292.887293 24.25,292 L31.14,264.11 L3.22,257.32 C2.32625172,257.105145 1.55614149,256.540546 1.0823822,255.752827 C0.608622907,254.965109 0.470863743,254.020194 0.7,253.13 L8.62,222.23 C9.08944209,220.393653 10.9586532,219.285558 12.795,219.755 C14.6313467,220.224442 15.739442,222.093653 15.27,223.93 L8.22,251.47 L36.11,258.25 C36.9971335,258.465278 37.7618525,259.025316 38.2348335,259.80611 C38.7078146,260.586905 38.8500334,261.524034 38.63,262.41 L31.75,290.27 L59.43,296.75 C61.1489179,297.127176 62.3035117,298.744028 62.102382,300.492309 C61.9012523,302.240591 60.4096621,303.553015 58.65,303.53 L58.65,303.5 Z" id="Shape" fill="#EF4939"></path>
            <path d="M410.19,275.54 C409.429413,275.540191 408.690464,275.286837 408.09,274.82 L382.84,255.32 C382.112918,254.759078 381.641123,253.93003 381.530229,253.018446 C381.419335,252.106863 381.678606,251.188881 382.25,250.47 L402.25,225.24 C403.426367,223.754354 405.584354,223.503633 407.07,224.68 C408.555646,225.856367 408.806367,228.014354 407.63,229.5 L389.79,252 L412.29,269.37 C413.456508,270.266146 413.921725,271.806326 413.446383,273.198399 C412.971041,274.590473 411.660986,275.524462 410.19,275.52 L410.19,275.54 Z" id="Shape" fill="#63C4B0"></path>
            <path d="M44.45,399.13 C35.316514,399.124478 27.9163205,391.716824 27.9200013,382.583337 C27.9236822,373.44985 35.3298439,366.048164 44.4633313,366.050003 C53.5968188,366.051843 60.9999983,373.456512 61,382.59 C60.9889701,391.724121 53.5841262,399.124491 44.45,399.13 Z M44.45,372.91 C39.1038836,372.91 34.77,377.243884 34.77,382.59 C34.77,387.936116 39.1038836,392.27 44.45,392.27 C49.7961164,392.27 54.13,387.936116 54.13,382.59 C54.124488,377.246168 49.7938316,372.915512 44.45,372.91 Z" id="Shape" fill="#B3D1DC"></path>
            <path d="M194.45,212.77 C193.36686,212.770006 192.347358,212.258401 191.7,211.39 L172.45,185.6 C171.715819,184.61752 171.561555,183.31799 172.045318,182.19093 C172.52908,181.063871 173.577374,180.280509 174.795318,180.13593 C176.013261,179.991351 177.215819,180.50752 177.95,181.49 L195.12,204.49 L217.69,187.21 C218.663549,186.465101 219.960544,186.296168 221.092419,186.766837 C222.224295,187.237505 223.019093,188.27627 223.177419,189.491837 C223.335746,190.707404 222.833549,191.915101 221.86,192.66 L196.53,212.05 C195.934591,212.511986 195.203603,212.76502 194.45,212.77 Z" id="Shape" fill="#63C4B0"></path>
            <path d="M77.37,190.72 C70.6801945,190.72 64.6491103,186.690158 62.0890325,180.509584 C59.5289548,174.32901 60.944047,167.214861 65.6744538,162.484454 C70.4048607,157.754047 77.5190096,156.338955 83.699584,158.899033 C89.8801584,161.45911 93.91,167.490194 93.91,174.18 C93.8989798,183.310221 86.5002212,190.70898 77.37,190.72 Z M77.37,164.5 C72.0238836,164.5 67.69,168.833884 67.69,174.18 C67.69,179.526116 72.0238836,183.86 77.37,183.86 C82.7161164,183.86 87.05,179.526116 87.05,174.18 C87.044488,168.836168 82.7138316,164.505512 77.37,164.5 Z" id="Shape" fill="#B3D1DC"></path>
            <path d="M219.78,309.83 C210.64521,309.83 203.24,302.42479 203.24,293.29 C203.24,284.15521 210.64521,276.75 219.78,276.75 C228.91479,276.75 236.32,284.15521 236.32,293.29 C236.30898,302.420221 228.910221,309.81898 219.78,309.83 Z M219.78,283.61 C214.433884,283.61 210.1,287.943884 210.1,293.29 C210.1,298.636116 214.433884,302.97 219.78,302.97 C225.126116,302.97 229.46,298.636116 229.46,293.29 C229.454488,287.946168 225.123832,283.615512 219.78,283.61 Z" id="Shape" fill="#B3D1DC"></path>
        </g>
    </g>
</svg>